PathFileType	4	(X/Y/Z)	C:\Users\ebm\Documents\Erivelton\Erivelton2\wc10.trc
DataRate	CameraRate	NumFrames	NumMarkers	Units	OrigDataRate	OrigDataStartFrame	OrigNumFrames
150.00	150.00	      8	28	mm	150.00	1140	      1302
Frame#	Time	IJ			PX			C7			T8			RAC			RAS			RPS			RAI			RPI			RLE			RME			RRS			RUS			R3M			R5M			LAC			LAS			LPS			LAI			LPI			LLE			LME			LRS			LUS			L3M			L5M			RW			LW			V_mid_elbow_r			V_mid_elbow_l			V_mid_wrist_r			V_mid_wrist_l			V_mid_trunk_low			V_mid_trunk_upp			
		X1	Y1	Z1	X2	Y2	Z2	X3	Y3	Z3	X4	Y4	Z4	X5	Y5	Z5	X6	Y6	Z6	X7	Y7	Z7	X8	Y8	Z8	X9	Y9	Z9	X10	Y10	Z10	X11	Y11	Z11	X12	Y12	Z12	X13	Y13	Z13	X14	Y14	Z14	X15	Y15	Z15	X16	Y16	Z16	X17	Y17	Z17	X18	Y18	Z18	X19	Y19	Z19	X20	Y20	Z20	X21	Y21	Z21	X22	Y22	Z22	X23	Y23	Z23	X24	Y24	Z24	X25	Y25	Z25	X26	Y26	Z26	X27	Y27	Z27	X28	Y28	Z28	

1140	7.593	4265.55908	1026.46240	205.24838	4270.71436	861.83130	235.83322	4135.83984	1126.23718	174.32114	4056.82935	976.16724	185.79413	4153.79150	1090.72534	390.31076	4104.41846	924.47644	473.99030	4060.03174	945.57623	462.30731	4073.11279	860.66718	504.06836	4024.10352	880.26343	494.23154	4011.56543	814.30762	521.06390	4001.24902	785.40356	445.82349				4150.20068	599.53882	568.70380	4221.48926	544.39935	581.75427	4184.85400	528.00818	583.47113	4183.78027	1059.41895	9.19845	4144.67676	916.37341	-73.63118	4101.79736	917.90057	-52.20177	4132.76416	844.45660	-109.56113	4082.95654	842.44159	-86.64205	4110.95654	759.70953	-139.91425	4072.38428	736.07043	-74.45892				4287.59961	563.89117	-118.43510				4315.14014	506.82635	-110.47504	4123.54688	294.43680	529.35437	4241.01074	291.58087	-89.20443	
1141	7.600	4272.59863	1026.52832	206.55348	4277.62158	861.91608	237.11998	4142.73828	1126.23511	175.41710	4064.04639	976.27783	187.03551	4160.72363	1090.94946	391.47778	4111.43506	924.46240	475.22290	4067.16260	945.45325	463.75790	4080.17529	860.73340	505.16458	4031.43213	880.37128	495.42456	4018.79980	814.34686	522.23792	4008.52466	785.46490	447.09753	4208.28906	615.54596	538.96521	4157.46924	599.52972	569.68683	4228.83594	544.23529	582.55566	4192.13330	528.06421	584.25208	4191.12695	1059.54333	10.30071	4151.90283	916.13202	-72.40302	4109.22656	917.81299	-51.04076	4140.17139	844.33899	-108.32600	4090.33765	842.34015	-85.37856	4118.53369	759.52307	-138.64388	4079.92041	735.89978	-73.15253										4322.83936	506.98444	-108.43876	4130.33154	294.37769	530.63898	4247.81836	291.49326	-87.84720	
1142	7.607	4279.66113	1026.61560	207.77606	4284.74121	861.97321	238.43887	4149.86426	1126.37244	176.60316	4071.16528	976.37775	188.22226	4167.77734	1091.33472	392.72058	4118.47461	924.58704	476.56808	4074.26953	945.76160	464.75262	4087.49951	860.87390	506.38208	4038.57886	880.43628	496.60724	4026.03857	814.47809	523.41583	4014.85303	785.66724	448.38403	4215.59082	615.72662	539.93835	4164.81836	599.60925	570.50952	4236.06934	543.90240	583.11505	4199.41797	528.03455	584.95056	4198.38965	1059.57922	11.47006	4159.24268	916.02844	-71.13243	4116.45898	917.75421	-49.87981	4147.64355	844.26813	-107.13140	4097.67334	842.24384	-84.20467	4126.13184	759.34192	-137.33577	4087.40405	735.76276	-72.01391										4330.31934	507.06235	-106.77281	4137.02051	294.38229	532.03003	4254.70313	291.28537	-86.54071	
1143	7.613	4286.60596	1026.68188	209.13676	4291.70801	862.12439	239.94766	4156.94043	1126.42908	177.71637	4078.07910	976.38446	189.47174	4174.59277	1091.41174	393.93954	4125.71387	924.85681	477.58566	4081.23193	945.60345	465.73230	4094.65967	860.96082	507.54065	4045.33716	880.17828	498.01108	4033.21533	814.57043	524.71710	4022.82813	785.62512	449.39337	4222.96973	615.78796	540.89941	4172.20605	599.65302	571.30225				4206.62695	527.93488	585.63434	4205.48340	1059.52466	12.79498	4166.68457	915.96051	-69.92671	4123.85254	917.60596	-48.71935	4155.29102	844.17676	-105.83646	4105.24951	842.08228	-83.10780	4133.67969	759.22925	-136.07175	4094.77466	735.74115	-70.77290										4338.11133	507.07526	-104.17532	4143.83105	294.70453	533.23364	4261.71240	290.89810	-85.13063	
1144	7.620	4293.77246	1026.80884	210.33487	4298.66699	862.15497	241.33295	4163.88818	1126.46118	178.94243	4085.20654	976.46362	190.81905	4181.65137	1091.73462	395.02914	4134.83203	926.64551	476.62665	4088.29565	945.13208	467.90189	4101.70898	861.03455	508.87119	4052.54004	880.19788	499.30374	4040.61694	814.62628	525.96722	4029.85327	785.78937	450.78754	4230.21484	615.89423	541.80878	4179.54785	599.79456	572.19141	4250.68311	543.72491	584.56836	4213.89893	527.93665	586.12799	4212.60059	1059.41125	14.10268	4173.95117	915.84906	-68.63047	4131.12891	917.56921	-47.60293	4162.55176	844.14471	-104.66032	4112.70850	841.97968	-81.98756	4141.24268	759.07294	-134.74858	4102.15234	735.54742	-69.46613										4345.85938	507.09512	-102.11405	4150.44336	294.78738	534.61328	4268.79248	290.61981	-83.82416	
1145	7.627	4300.76123	1026.72168	211.68744	4305.79785	862.24982	242.79079	4170.99072	1126.37830	180.13782	4092.08301	976.43353	191.99689	4188.62354	1091.99866	396.22473	4140.07910	925.15942	480.04855	4095.45190	945.96674	468.37595	4108.98389	861.22241	510.21893	4059.74243	880.32019	500.65472	4047.75195	814.75513	527.20923	4037.17310	785.89673	452.04523	4237.58936	616.03650	542.62433	4186.90967	599.84137	573.04010	4257.86865	543.59747	585.02600	4221.16650	527.83203	586.79022	4219.80176	1059.49805	15.26887	4181.44385	915.87848	-67.36286	4138.50977	917.52203	-46.48080	4170.09180	843.95551	-103.38564	4120.11035	841.93964	-80.86176	4148.63379	758.91516	-133.43884	4109.51758	735.43024	-68.21178										4353.24854	507.30017	-100.38676	4157.06055	294.85251	535.82764	4275.97217	290.42194	-82.44170	
1146	7.633				4312.66260	862.20001	244.26530	4178.02100	1126.45581	181.28339	4099.41113	976.45428	193.28223	4195.56201	1092.02808	397.58246	4146.85352	924.62695	480.76770	4102.40430	945.38464	470.64044	4116.12256	861.28204	511.46628	4067.21094	880.81079	501.99207	4054.26929	814.73499	528.72534	4043.87109	786.13617	453.30286	4244.89063	616.12439	543.55225	4194.27783	599.94342	573.91870				4228.42627	527.77100	587.37921	4227.08008	1059.47437	16.51035	4188.91504	915.83136	-66.24493	4145.85938	917.45074	-45.28722	4177.43408	843.84052	-102.13235	4127.39600	841.83887	-79.59613	4156.24609	758.74359	-132.07735	4117.13281	735.41400	-67.05513										4360.74316	507.37570	-98.13650	4163.69873	294.88968	536.80798	4282.82959	290.28845	-81.20078	
1147	7.640	4314.96582	1026.72717	214.29521	4319.83838	862.19208	245.78345	4185.12988	1126.41138	182.46983	4106.42090	976.47180	194.54559	4202.57471	1092.21936	398.68356	4154.19141	925.34241	482.76282	4109.70508	945.96875	471.46780	4123.33447	861.40173	512.80298	4074.61646	880.96228	503.26129	4061.53174	814.86682	530.20660	4051.43945	786.22351	454.64563	4272.43018	543.43707	585.99738	4201.64160	599.97577	574.78699				4235.70605	527.69714	587.82318	4234.09326	1059.38721	17.78926	4196.13477	915.60352	-64.84338	4153.25830	917.33490	-44.05845	4184.88916	843.72137	-100.75748	4134.85303	841.75140	-78.46577	4163.50098	758.55060	-130.55032	4124.33105	735.20563	-65.82652										4368.79834	507.26376	-95.35642	4170.40332	295.12830	537.87787	4289.88086	290.05078	-79.88914	
